<svg xmlns="http://www.w3.org/2000/svg" width="67.639" height="54.535" viewBox="0 0 67.639 54.535">
  <g id="banners" transform="translate(0 -3)">
    <circle id="Ellipse_15" data-name="Ellipse 15" cx="4.545" cy="4.545" r="4.545" transform="translate(10.074 36.327)" fill="#626262"/>
    <path id="Path_23071" data-name="Path 23071" d="M53.547,3H14.091C6.313,3.01.009,9.786,0,18.149V42.386c.009,8.362,6.313,15.139,14.091,15.149H53.547c7.779-.01,14.082-6.786,14.091-15.149V18.149C67.63,9.786,61.326,3.01,53.547,3ZM14.091,9.059H53.547c4.669,0,8.455,4.069,8.455,9.089H5.637c0-5.02,3.785-9.089,8.455-9.089ZM53.547,51.475H14.091c-4.669,0-8.455-4.069-8.455-9.089V24.208H62V42.386C62,47.406,58.217,51.475,53.547,51.475Z" transform="translate(0 0)" fill="#626262"/>
  </g>
</svg>
