<svg xmlns="http://www.w3.org/2000/svg" width="59.573" height="59.573" viewBox="0 0 59.573 59.573">
  <path id="branches" d="M52.127,4.964H19.4A7.437,7.437,0,0,0,12.411,0H7.447A7.456,7.456,0,0,0,0,7.447V59.573H59.573V12.411A7.456,7.456,0,0,0,52.127,4.964Zm2.482,7.447v2.482H39.716V9.929H52.127A2.483,2.483,0,0,1,54.609,12.411ZM4.964,7.447A2.483,2.483,0,0,1,7.447,4.964h4.964a2.483,2.483,0,0,1,2.482,2.482V44.68H4.964Zm0,47.162V49.644H19.858V9.929H34.751v9.929H54.609V54.609ZM39.716,27.3a2.482,2.482,0,1,1-2.482-2.482A2.483,2.483,0,0,1,39.716,27.3Zm-9.929,0A2.482,2.482,0,1,1,27.3,24.822,2.483,2.483,0,0,1,29.787,27.3Zm19.858,0a2.482,2.482,0,1,1-2.482-2.482A2.483,2.483,0,0,1,49.644,27.3Zm-9.929,9.929a2.482,2.482,0,1,1-2.482-2.482A2.483,2.483,0,0,1,39.716,37.233Zm-9.929,0A2.482,2.482,0,1,1,27.3,34.751,2.483,2.483,0,0,1,29.787,37.233Zm19.858,0a2.482,2.482,0,1,1-2.482-2.482A2.483,2.483,0,0,1,49.644,37.233Zm-9.929,9.929a2.482,2.482,0,1,1-2.482-2.482A2.483,2.483,0,0,1,39.716,47.162Zm-9.929,0A2.482,2.482,0,1,1,27.3,44.68,2.483,2.483,0,0,1,29.787,47.162Zm19.858,0a2.482,2.482,0,1,1-2.482-2.482A2.483,2.483,0,0,1,49.644,47.162Z" fill="#626262"/>
</svg>
