<svg xmlns="http://www.w3.org/2000/svg" width="15.985" height="18.269" viewBox="0 0 15.985 18.269">
  <path id="Icon_awesome-calendar" data-name="Icon awesome-calendar" d="M.428,6.851H15.557a.429.429,0,0,1,.428.428v9.277a1.713,1.713,0,0,1-1.713,1.713H1.713A1.713,1.713,0,0,1,0,16.556V7.279A.429.429,0,0,1,.428,6.851Zm15.557-1.57V4a1.713,1.713,0,0,0-1.713-1.713H12.56V.428A.429.429,0,0,0,12.131,0H10.7a.429.429,0,0,0-.428.428V2.284H5.709V.428A.429.429,0,0,0,5.281,0H3.854a.429.429,0,0,0-.428.428V2.284H1.713A1.713,1.713,0,0,0,0,4V5.281a.429.429,0,0,0,.428.428H15.557A.429.429,0,0,0,15.985,5.281Z" fill="#626262"/>
</svg>
