<svg xmlns="http://www.w3.org/2000/svg" width="52.418" height="50.902" viewBox="0 0 52.418 50.902">
  <g id="categories" transform="translate(-0.009 0)">
    <path id="Path_11" data-name="Path 11" d="M8.493.029h6.363a8.484,8.484,0,0,1,8.484,8.484v6.363a8.484,8.484,0,0,1-8.484,8.484H8.493A8.484,8.484,0,0,1,.009,14.875V8.513A8.484,8.484,0,0,1,8.493.029Z" transform="translate(0 -0.029)" fill="gray"/>
    <path id="Path_13" data-name="Path 13" d="M8.493.029h6.363a8.484,8.484,0,0,1,8.484,8.484v6.363a8.484,8.484,0,0,1-8.484,8.484H8.493A8.484,8.484,0,0,1,.009,14.875V8.513A8.484,8.484,0,0,1,8.493.029Z" transform="translate(29.088 -0.029)" fill="gray"/>
    <path id="Path_12" data-name="Path 12" d="M8.493,277.362h6.363a8.484,8.484,0,0,1,8.484,8.484v6.363a8.484,8.484,0,0,1-8.484,8.484H8.493a8.484,8.484,0,0,1-8.484-8.484v-6.363A8.484,8.484,0,0,1,8.493,277.362Z" transform="translate(0 -249.79)" fill="gray"/>
    <path id="Path_14" data-name="Path 14" d="M8.493,277.362h6.363a8.484,8.484,0,0,1,8.484,8.484v6.363a8.484,8.484,0,0,1-8.484,8.484H8.493a8.484,8.484,0,0,1-8.484-8.484v-6.363A8.484,8.484,0,0,1,8.493,277.362Z" transform="translate(29.088 -249.79)" fill="gray"/>
  </g>
</svg>
