<svg xmlns="http://www.w3.org/2000/svg" width="58.504" height="58.502" viewBox="0 0 58.504 58.502">
  <path id="info" d="M32.908,15.845a3.656,3.656,0,1,1-3.656-3.656A3.656,3.656,0,0,1,32.908,15.845ZM58.5,46.313V30.08A29.759,29.759,0,0,0,31.289.07,29.249,29.249,0,0,0,.073,31.333C1.15,46.82,14.827,58.5,31.891,58.5H46.314A12.2,12.2,0,0,0,58.5,46.313ZM30.958,4.935A24.862,24.862,0,0,1,53.626,30.08V46.313a7.312,7.312,0,0,1-7.312,7.312H31.891C17.184,53.625,5.852,44.119,4.938,31A24.374,24.374,0,0,1,29.29,4.877C29.844,4.877,30.4,4.9,30.958,4.935Zm3.169,38.94V29.251a4.875,4.875,0,0,0-4.875-4.875H26.814a2.437,2.437,0,1,0,0,4.875h2.437V43.876a2.437,2.437,0,0,0,4.875,0Z" transform="translate(0.001 0.001)" fill="#626262"/>
</svg>
