<svg xmlns="http://www.w3.org/2000/svg" width="332.324" height="120.865" viewBox="0 0 332.324 120.865">
  <g id="Group_11690" data-name="Group 11690" transform="translate(17130.324 835.865)">
    <g id="Group_11689" data-name="Group 11689" transform="translate(-18005.098 -1121.867)">
      <text id="Groxery." transform="translate(967.608 352.793)" fill="#01684b" font-size="46" font-family="Poppins-Medium, Poppins" font-weight="500"><tspan x="0" y="0">Groxery.</tspan></text>
      <g id="Group_153" data-name="Group 153" transform="translate(877.273 288.64)">
        <path id="Icon_awesome-apple" data-name="Icon awesome-apple" d="M52.689,44.839c-.031-5.751,8-13.922,8.327-14.122-3.131-4.48-7.86-6.944-14.105-7.427C41,22.823,34.537,26.737,32.172,26.737c-2.5,0-8.227-3.281-12.723-3.281C10.157,23.606.281,30.867.281,45.638a41.507,41.507,0,0,0,2.4,13.523c2.132,6.112,9.825,21.1,17.852,20.85,4.2-.1,7.161-2.981,12.623-2.981,5.3,0,8.044,2.981,12.723,2.981,8.094-.117,15.055-13.739,17.086-19.867-10.858-5.113-10.275-14.988-10.275-15.3Zm-9.95-34.478a15.685,15.685,0,0,0,4-12.074A17.659,17.659,0,0,0,35.428,4.1a15.931,15.931,0,0,0-4.263,11.974c4.347.333,8.31-1.9,11.574-5.712Z" transform="translate(-0.281 1.713)" fill="none" stroke="#01684b" stroke-width="5"/>
        <path id="Path_23090" data-name="Path 23090" d="M-8248.992-3201.2l4.979-10.539,4.627-1.379c2.227-2.167,1.514.784,3.129-.964l-7.162,7.479.5-1.924c.375-1.865,7.209-8.741,7.209-8.741" transform="translate(8280.531 3218.867)" fill="none" stroke="#01684b" stroke-width="5"/>
      </g>
    </g>
    <text id="Your_grocery_partner" data-name="Your grocery partner" transform="translate(-17036 -723)" fill="#5d5d5d" font-size="23" font-family="Poppins-Regular, Poppins"><tspan x="0" y="0">Your grocery partner</tspan></text>
  </g>
</svg>
