<svg xmlns="http://www.w3.org/2000/svg" width="59.181" height="56.1" viewBox="0 0 59.181 56.1">
  <g id="misc" transform="translate(0 -13.326)">
    <path id="Path_23074" data-name="Path 23074" d="M26.385,18.259a8.584,8.584,0,0,0-15.535,0H3.7a3.7,3.7,0,0,0-3.7,3.7H0a3.7,3.7,0,0,0,3.7,3.7h7.139a8.584,8.584,0,0,0,15.535,0h29.11a3.7,3.7,0,0,0,3.7-3.7h0a3.7,3.7,0,0,0-3.7-3.7Z" fill="#626262"/>
    <path id="Path_23075" data-name="Path 23075" d="M40.576,181.333a8.611,8.611,0,0,0-7.77,4.932H3.7a3.7,3.7,0,0,0-3.7,3.7H0a3.7,3.7,0,0,0,3.7,3.7H32.8a8.584,8.584,0,0,0,15.535,0h7.151a3.7,3.7,0,0,0,3.7-3.7h0a3.7,3.7,0,0,0-3.7-3.7H48.344A8.611,8.611,0,0,0,40.576,181.333Z" transform="translate(0 -148.587)" fill="#626262"/>
    <path id="Path_23076" data-name="Path 23076" d="M18.605,349.333a8.61,8.61,0,0,0-7.768,4.932H3.7a3.7,3.7,0,0,0-3.7,3.7H0a3.7,3.7,0,0,0,3.7,3.7h7.139a8.584,8.584,0,0,0,15.535,0h29.11a3.7,3.7,0,0,0,3.7-3.7h0a3.7,3.7,0,0,0-3.7-3.7h-29.1A8.611,8.611,0,0,0,18.605,349.333Z" transform="translate(0 -297.168)" fill="#626262"/>
  </g>
</svg>
