<svg xmlns="http://www.w3.org/2000/svg" width="53.7" height="53.7" viewBox="0 0 53.7 53.7">
  <path id="offers" d="M26.85,53.7a12.283,12.283,0,0,1-9.415-4.383,11.774,11.774,0,0,1-9.57-3.479,12.3,12.3,0,0,1-3.558-9.76A11.792,11.792,0,0,1,0,26.85a12.277,12.277,0,0,1,4.386-9.415,11.789,11.789,0,0,1,3.479-9.57,12.262,12.262,0,0,1,9.758-3.558A11.8,11.8,0,0,1,26.85,0a12.283,12.283,0,0,1,9.415,4.383,11.777,11.777,0,0,1,9.57,3.479,12.3,12.3,0,0,1,3.558,9.76A11.792,11.792,0,0,1,53.7,26.85a12.277,12.277,0,0,1-4.386,9.415,11.789,11.789,0,0,1-3.479,9.57,12.291,12.291,0,0,1-9.758,3.558A11.8,11.8,0,0,1,26.85,53.7Zm-9.234-8.78a4.2,4.2,0,0,1,3.24,1.513,7.83,7.83,0,0,0,11.989,0,4.211,4.211,0,0,1,3.616-1.5,7.83,7.83,0,0,0,8.476-8.476,4.2,4.2,0,0,1,1.5-3.618,7.829,7.829,0,0,0,0-11.984,4.2,4.2,0,0,1-1.5-3.618,7.83,7.83,0,0,0-8.473-8.476,4.184,4.184,0,0,1-3.618-1.5,7.83,7.83,0,0,0-11.989,0,4.233,4.233,0,0,1-3.616,1.5A7.83,7.83,0,0,0,8.764,17.24a4.2,4.2,0,0,1-1.5,3.618,7.829,7.829,0,0,0,0,11.984,4.2,4.2,0,0,1,1.5,3.618,7.83,7.83,0,0,0,8.473,8.476C17.365,44.925,17.491,44.92,17.616,44.92ZM20.138,17.9a2.238,2.238,0,1,0,2.237,2.238A2.238,2.238,0,0,0,20.138,17.9ZM33.563,31.325A2.238,2.238,0,1,0,35.8,33.563,2.238,2.238,0,0,0,33.563,31.325ZM24.237,34.8l8.95-13.425A2.238,2.238,0,1,0,29.463,18.9l-8.95,13.425A2.238,2.238,0,0,0,24.237,34.8Z" fill="#626262"/>
</svg>
