<svg xmlns="http://www.w3.org/2000/svg" width="54.907" height="54.907" viewBox="0 0 54.907 54.907">
  <path id="pos" d="M42.324,0H12.583A12.6,12.6,0,0,0,0,12.583v2.288a10.308,10.308,0,0,0,10.3,10.3H44.612a10.308,10.308,0,0,0,10.3-10.3V12.583A12.6,12.6,0,0,0,42.324,0Zm5.72,14.871A3.436,3.436,0,0,1,44.612,18.3H43.271a3.431,3.431,0,0,0-3.235-4.576H14.871a3.431,3.431,0,0,0-3.432,3.432,3.385,3.385,0,0,0,.2,1.144H10.3a3.436,3.436,0,0,1-3.432-3.432V12.583a5.726,5.726,0,0,1,5.72-5.72H42.324a5.726,5.726,0,0,1,5.72,5.72Zm-22.878,18.3V44.612a10.3,10.3,0,0,1-20.59,0,11.043,11.043,0,0,1,4.006-8.479,3.431,3.431,0,0,1,4.342,5.315,4.226,4.226,0,0,0-1.485,3.164,3.432,3.432,0,0,0,6.863,0V33.173a3.432,3.432,0,0,1,6.863,0ZM50.332,44.612a10.3,10.3,0,0,1-20.59,0V33.173a3.432,3.432,0,0,1,6.863,0V44.612a3.432,3.432,0,0,0,6.863,0,4.234,4.234,0,0,0-1.485-3.164,3.431,3.431,0,0,1,4.342-5.315A11.043,11.043,0,0,1,50.332,44.612Z" fill="#626262"/>
</svg>
