<svg xmlns="http://www.w3.org/2000/svg" width="59.157" height="59.157" viewBox="0 0 59.157 59.157">
  <path id="products" d="M51.763,14.789H44.368a14.789,14.789,0,1,0-29.579,0H7.395A7.4,7.4,0,0,0,0,22.184V46.833A12.339,12.339,0,0,0,12.324,59.157H46.833A12.339,12.339,0,0,0,59.157,46.833V22.184A7.4,7.4,0,0,0,51.763,14.789ZM29.579,4.93a9.86,9.86,0,0,1,9.86,9.86H19.719a9.86,9.86,0,0,1,9.86-9.86Zm24.649,41.9a7.4,7.4,0,0,1-7.395,7.395H12.324A7.4,7.4,0,0,1,4.93,46.833V22.184a2.465,2.465,0,0,1,2.465-2.465h7.395v4.93a2.465,2.465,0,1,0,4.93,0v-4.93H39.438v4.93a2.465,2.465,0,0,0,4.93,0v-4.93h7.395a2.465,2.465,0,0,1,2.465,2.465Z" fill="#626262"/>
</svg>
