<svg xmlns="http://www.w3.org/2000/svg" width="55.945" height="62.177" viewBox="0 0 55.945 62.177">
  <g id="settings" transform="translate(-1.203)">
    <path id="Path_23072" data-name="Path 23072" d="M19.263,8A11.263,11.263,0,1,0,30.525,19.263,11.263,11.263,0,0,0,19.263,8Zm0,16.894a5.631,5.631,0,1,1,5.631-5.631A5.631,5.631,0,0,1,19.263,24.894Z" transform="translate(9.913 11.826)" fill="#626262"/>
    <path id="Path_23073" data-name="Path 23073" d="M53.253,36.011l-1.15-.663a23.576,23.576,0,0,0,0-8.523l1.15-.663a7.776,7.776,0,1,0-7.772-13.472l-1.153.666A23.257,23.257,0,0,0,36.947,9.1V7.772a7.772,7.772,0,0,0-15.544,0V9.1a23.257,23.257,0,0,0-7.378,4.264l-1.158-.671A7.776,7.776,0,1,0,5.095,26.166l1.15.663a23.575,23.575,0,0,0,0,8.523l-1.15.663a7.776,7.776,0,0,0,7.772,13.472l1.153-.666A23.257,23.257,0,0,0,21.4,53.076V54.4a7.772,7.772,0,0,0,15.544,0V53.076a23.257,23.257,0,0,0,7.378-4.264l1.158.668a7.776,7.776,0,1,0,7.772-13.472Zm-6.6-9.783a18.259,18.259,0,0,1,0,9.715,2.591,2.591,0,0,0,1.2,2.935L50.663,40.5a2.592,2.592,0,1,1-2.591,4.49l-2.814-1.627a2.591,2.591,0,0,0-3.148.427,18.094,18.094,0,0,1-8.4,4.858,2.591,2.591,0,0,0-1.946,2.51V54.4a2.591,2.591,0,1,1-5.181,0V51.161a2.591,2.591,0,0,0-1.946-2.51,18.093,18.093,0,0,1-8.4-4.868,2.591,2.591,0,0,0-3.148-.427L10.281,44.98A2.591,2.591,0,1,1,7.69,40.493L10.5,38.871a2.591,2.591,0,0,0,1.2-2.935,18.259,18.259,0,0,1,0-9.715A2.591,2.591,0,0,0,10.5,23.3L7.688,21.674a2.592,2.592,0,1,1,2.591-4.49l2.814,1.627a2.591,2.591,0,0,0,3.145-.417,18.094,18.094,0,0,1,8.4-4.858,2.591,2.591,0,0,0,1.946-2.521V7.772a2.591,2.591,0,0,1,5.181,0v3.244a2.591,2.591,0,0,0,1.946,2.51,18.094,18.094,0,0,1,8.4,4.868,2.591,2.591,0,0,0,3.148.427L48.069,17.2a2.591,2.591,0,1,1,2.591,4.487l-2.808,1.622a2.591,2.591,0,0,0-1.2,2.925Z" transform="translate(0 0)" fill="#626262"/>
  </g>
</svg>
