<svg xmlns="http://www.w3.org/2000/svg" width="72.812" height="52.469" viewBox="0 0 72.812 52.469">
  <path id="upload" d="M56.962,22.869A10.184,10.184,0,0,0,47.469,9.031a10.12,10.12,0,0,0-5.647,1.716A16.954,16.954,0,0,0,10.172,19.2c0,.286.011.572.021.858a15.262,15.262,0,0,0,5.065,29.657H54.25a13.562,13.562,0,0,0,2.712-26.849ZM41.683,29.375h-6.93V41.242a1.7,1.7,0,0,1-1.7,1.7H27.973a1.7,1.7,0,0,1-1.7-1.7V29.375h-6.93a1.692,1.692,0,0,1-1.2-2.893L29.318,15.314a1.7,1.7,0,0,1,2.395,0L42.881,26.482a1.694,1.694,0,0,1-1.2,2.893Z" transform="translate(2.5 0.25)" fill="none" stroke="#626262" stroke-width="5"/>
</svg>
